<mxfile host="app.diagrams.net" agent="Mozilla/5.0 (X11; Ubuntu; Linux x86_64; rv:131.0) Gecko/20100101 Firefox/131.0" scale="1" border="0" version="24.7.17">
  <diagram name="Page-1" id="Y8Pnl33S3f14RiSQ5ugO">
    <mxGraphModel dx="1044" dy="615" grid="1" gridSize="10" guides="1" tooltips="1" connect="1" arrows="1" fold="1" page="1" pageScale="1" pageWidth="850" pageHeight="1100" math="0" shadow="0">
      <root>
        <mxCell id="0" />
        <mxCell id="1" parent="0" />
        <mxCell id="SPqAqPT20OvaiUhNbXfC-1" value="Player" style="swimlane;fontStyle=1;align=center;verticalAlign=top;childLayout=stackLayout;horizontal=1;startSize=26;horizontalStack=0;resizeParent=1;resizeParentMax=0;resizeLast=0;collapsible=1;marginBottom=0;whiteSpace=wrap;html=1;" parent="1" vertex="1">
          <mxGeometry x="40" y="40" width="160" height="150" as="geometry" />
        </mxCell>
        <mxCell id="SPqAqPT20OvaiUhNbXfC-2" value="&lt;div&gt;#name: string&lt;/div&gt;" style="text;strokeColor=none;fillColor=none;align=left;verticalAlign=top;spacingLeft=4;spacingRight=4;overflow=hidden;rotatable=0;points=[[0,0.5],[1,0.5]];portConstraint=eastwest;whiteSpace=wrap;html=1;" parent="SPqAqPT20OvaiUhNbXfC-1" vertex="1">
          <mxGeometry y="26" width="160" height="44" as="geometry" />
        </mxCell>
        <mxCell id="SPqAqPT20OvaiUhNbXfC-3" value="" style="line;strokeWidth=1;fillColor=none;align=left;verticalAlign=middle;spacingTop=-1;spacingLeft=3;spacingRight=3;rotatable=0;labelPosition=right;points=[];portConstraint=eastwest;strokeColor=inherit;" parent="SPqAqPT20OvaiUhNbXfC-1" vertex="1">
          <mxGeometry y="70" width="160" height="8" as="geometry" />
        </mxCell>
        <mxCell id="SPqAqPT20OvaiUhNbXfC-4" value="+Player()&lt;br&gt;&lt;div&gt;+getBalance(): int&lt;br&gt;&lt;/div&gt;&lt;div&gt;+setBalance(): void&lt;br&gt;&lt;/div&gt;" style="text;strokeColor=none;fillColor=none;align=left;verticalAlign=top;spacingLeft=4;spacingRight=4;overflow=hidden;rotatable=0;points=[[0,0.5],[1,0.5]];portConstraint=eastwest;whiteSpace=wrap;html=1;" parent="SPqAqPT20OvaiUhNbXfC-1" vertex="1">
          <mxGeometry y="78" width="160" height="72" as="geometry" />
        </mxCell>
        <mxCell id="SPqAqPT20OvaiUhNbXfC-5" value="Game" style="swimlane;fontStyle=1;align=center;verticalAlign=top;childLayout=stackLayout;horizontal=1;startSize=26;horizontalStack=0;resizeParent=1;resizeParentMax=0;resizeLast=0;collapsible=1;marginBottom=0;whiteSpace=wrap;html=1;" parent="1" vertex="1">
          <mxGeometry x="280" y="40" width="190" height="200" as="geometry" />
        </mxCell>
        <mxCell id="SPqAqPT20OvaiUhNbXfC-6" value="&lt;div&gt;+Game()&lt;/div&gt;&lt;div&gt;+~Game()&lt;br&gt;&lt;/div&gt;&lt;div&gt;+odds: enum&lt;br&gt;&lt;/div&gt;&lt;div&gt;#currencyName: string&lt;br&gt;&lt;/div&gt;&lt;div&gt;#currencyAmount: float&lt;br&gt;&lt;/div&gt;&lt;div&gt;#Odds: odds&lt;br&gt;&lt;/div&gt;" style="text;strokeColor=none;fillColor=none;align=left;verticalAlign=top;spacingLeft=4;spacingRight=4;overflow=hidden;rotatable=0;points=[[0,0.5],[1,0.5]];portConstraint=eastwest;whiteSpace=wrap;html=1;" parent="SPqAqPT20OvaiUhNbXfC-5" vertex="1">
          <mxGeometry y="26" width="190" height="104" as="geometry" />
        </mxCell>
        <mxCell id="SPqAqPT20OvaiUhNbXfC-7" value="" style="line;strokeWidth=1;fillColor=none;align=left;verticalAlign=middle;spacingTop=-1;spacingLeft=3;spacingRight=3;rotatable=0;labelPosition=right;points=[];portConstraint=eastwest;strokeColor=inherit;" parent="SPqAqPT20OvaiUhNbXfC-5" vertex="1">
          <mxGeometry y="130" width="190" height="8" as="geometry" />
        </mxCell>
        <mxCell id="SPqAqPT20OvaiUhNbXfC-8" value="&lt;div&gt;+placeBet(Player, int): void&lt;/div&gt;&lt;div&gt;+quit(): void&lt;/div&gt;&lt;div&gt;+updateBalance(Player, int)&lt;br&gt;&lt;/div&gt;&lt;div&gt;&lt;br&gt;&lt;/div&gt;" style="text;strokeColor=none;fillColor=none;align=left;verticalAlign=top;spacingLeft=4;spacingRight=4;overflow=hidden;rotatable=0;points=[[0,0.5],[1,0.5]];portConstraint=eastwest;whiteSpace=wrap;html=1;" parent="SPqAqPT20OvaiUhNbXfC-5" vertex="1">
          <mxGeometry y="138" width="190" height="62" as="geometry" />
        </mxCell>
        <mxCell id="SPqAqPT20OvaiUhNbXfC-14" value="Randomizer" style="swimlane;fontStyle=1;align=center;verticalAlign=top;childLayout=stackLayout;horizontal=1;startSize=26;horizontalStack=0;resizeParent=1;resizeParentMax=0;resizeLast=0;collapsible=1;marginBottom=0;whiteSpace=wrap;html=1;" parent="1" vertex="1">
          <mxGeometry x="550" y="270" width="160" height="180" as="geometry" />
        </mxCell>
        <mxCell id="SPqAqPT20OvaiUhNbXfC-15" value="&lt;div&gt;#min: int&lt;/div&gt;&lt;div&gt;#max: int&lt;br&gt;&lt;/div&gt;" style="text;strokeColor=none;fillColor=none;align=left;verticalAlign=top;spacingLeft=4;spacingRight=4;overflow=hidden;rotatable=0;points=[[0,0.5],[1,0.5]];portConstraint=eastwest;whiteSpace=wrap;html=1;" parent="SPqAqPT20OvaiUhNbXfC-14" vertex="1">
          <mxGeometry y="26" width="160" height="44" as="geometry" />
        </mxCell>
        <mxCell id="SPqAqPT20OvaiUhNbXfC-16" value="" style="line;strokeWidth=1;fillColor=none;align=left;verticalAlign=middle;spacingTop=-1;spacingLeft=3;spacingRight=3;rotatable=0;labelPosition=right;points=[];portConstraint=eastwest;strokeColor=inherit;" parent="SPqAqPT20OvaiUhNbXfC-14" vertex="1">
          <mxGeometry y="70" width="160" height="8" as="geometry" />
        </mxCell>
        <mxCell id="SPqAqPT20OvaiUhNbXfC-17" value="&lt;div&gt;+Randomizer()&lt;/div&gt;&lt;div&gt;+Randomizer(int, int)&lt;/div&gt;&lt;div&gt;#~Randomizer()&lt;br&gt;&lt;/div&gt;&lt;div&gt;+generateNumber(): int&lt;/div&gt;&lt;div&gt;+getMin(): int&lt;/div&gt;&lt;div&gt;+getMax(): int&lt;br&gt;&lt;/div&gt;" style="text;strokeColor=none;fillColor=none;align=left;verticalAlign=top;spacingLeft=4;spacingRight=4;overflow=hidden;rotatable=0;points=[[0,0.5],[1,0.5]];portConstraint=eastwest;whiteSpace=wrap;html=1;" parent="SPqAqPT20OvaiUhNbXfC-14" vertex="1">
          <mxGeometry y="78" width="160" height="102" as="geometry" />
        </mxCell>
        <mxCell id="SPqAqPT20OvaiUhNbXfC-31" value="Rezyak" style="swimlane;fontStyle=1;align=center;verticalAlign=top;childLayout=stackLayout;horizontal=1;startSize=26;horizontalStack=0;resizeParent=1;resizeParentMax=0;resizeLast=0;collapsible=1;marginBottom=0;whiteSpace=wrap;html=1;" parent="1" vertex="1">
          <mxGeometry x="280" y="300" width="160" height="240" as="geometry" />
        </mxCell>
        <mxCell id="jPMi_xC_6u1uj6pGadxU-1" value="&lt;div align=&quot;left&quot;&gt;+spinner: Spinner*&lt;/div&gt;&lt;div align=&quot;left&quot;&gt;+player: Player*&lt;br&gt;&lt;/div&gt;&lt;div align=&quot;left&quot;&gt;#score: int&lt;/div&gt;" style="text;html=1;align=left;verticalAlign=middle;resizable=0;points=[];autosize=1;strokeColor=none;fillColor=none;" parent="SPqAqPT20OvaiUhNbXfC-31" vertex="1">
          <mxGeometry y="26" width="160" height="60" as="geometry" />
        </mxCell>
        <mxCell id="SPqAqPT20OvaiUhNbXfC-33" value="" style="line;strokeWidth=1;fillColor=none;align=left;verticalAlign=middle;spacingTop=-1;spacingLeft=3;spacingRight=3;rotatable=0;labelPosition=right;points=[];portConstraint=eastwest;strokeColor=inherit;" parent="SPqAqPT20OvaiUhNbXfC-31" vertex="1">
          <mxGeometry y="86" width="160" height="44" as="geometry" />
        </mxCell>
        <mxCell id="SPqAqPT20OvaiUhNbXfC-34" value="&lt;div&gt;+Rezyak()&lt;/div&gt;&lt;div&gt;+~Rezyak()&lt;br&gt;&lt;/div&gt;&lt;div&gt;+spin(int, int): int&lt;br&gt;&lt;/div&gt;&lt;div&gt;+payout(int): int&lt;br&gt;&lt;/div&gt;&lt;div&gt;+resetScore(): void&lt;/div&gt;&lt;div&gt;+setScore(int): void&lt;/div&gt;&lt;div&gt;+getScore(): int&lt;br&gt;&lt;/div&gt;" style="text;strokeColor=none;fillColor=none;align=left;verticalAlign=top;spacingLeft=4;spacingRight=4;overflow=hidden;rotatable=0;points=[[0,0.5],[1,0.5]];portConstraint=eastwest;whiteSpace=wrap;html=1;" parent="SPqAqPT20OvaiUhNbXfC-31" vertex="1">
          <mxGeometry y="130" width="160" height="110" as="geometry" />
        </mxCell>
        <mxCell id="SPqAqPT20OvaiUhNbXfC-35" value="Inherits from" style="endArrow=block;endSize=16;endFill=0;html=1;rounded=0;entryX=0.5;entryY=1;entryDx=0;entryDy=0;exitX=0.5;exitY=0;exitDx=0;exitDy=0;" parent="1" target="SPqAqPT20OvaiUhNbXfC-14" edge="1">
          <mxGeometry width="160" relative="1" as="geometry">
            <mxPoint x="630" y="500" as="sourcePoint" />
            <mxPoint x="629.5" y="501.5" as="targetPoint" />
          </mxGeometry>
        </mxCell>
        <mxCell id="SPqAqPT20OvaiUhNbXfC-36" value="Inherits from" style="endArrow=block;endSize=16;endFill=0;html=1;rounded=0;exitX=0.5;exitY=0;exitDx=0;exitDy=0;entryX=0.421;entryY=0.952;entryDx=0;entryDy=0;entryPerimeter=0;" parent="1" source="SPqAqPT20OvaiUhNbXfC-31" target="SPqAqPT20OvaiUhNbXfC-8" edge="1">
          <mxGeometry width="160" relative="1" as="geometry">
            <mxPoint x="360" y="260" as="sourcePoint" />
            <mxPoint x="360" y="250" as="targetPoint" />
          </mxGeometry>
        </mxCell>
        <mxCell id="SPqAqPT20OvaiUhNbXfC-38" value="Uses" style="endArrow=open;endSize=12;dashed=1;html=1;rounded=0;entryX=1;entryY=0.5;entryDx=0;entryDy=0;exitX=0;exitY=0.5;exitDx=0;exitDy=0;" parent="1" target="SPqAqPT20OvaiUhNbXfC-31" edge="1">
          <mxGeometry width="160" relative="1" as="geometry">
            <mxPoint x="550" y="548" as="sourcePoint" />
            <mxPoint x="440" y="309.99800000000005" as="targetPoint" />
          </mxGeometry>
        </mxCell>
        <mxCell id="BldTMk8L5QHQUdBhH2Uk-1" value="MakeRandomInt" style="swimlane;fontStyle=1;align=center;verticalAlign=top;childLayout=stackLayout;horizontal=1;startSize=26;horizontalStack=0;resizeParent=1;resizeParentMax=0;resizeLast=0;collapsible=1;marginBottom=0;whiteSpace=wrap;html=1;" parent="1" vertex="1">
          <mxGeometry x="510" y="20" width="240" height="210" as="geometry" />
        </mxCell>
        <mxCell id="BldTMk8L5QHQUdBhH2Uk-2" value="&lt;div&gt;-_instance: MakeRandomInt*&lt;/div&gt;&lt;div&gt;-_seed: unsigned&lt;/div&gt;&lt;div&gt;-_generator: std::default_random_engine&lt;/div&gt;&lt;div&gt;-_distribution: std::uniform_int_distribution&lt;br&gt;&lt;/div&gt;" style="text;strokeColor=none;fillColor=none;align=left;verticalAlign=top;spacingLeft=4;spacingRight=4;overflow=hidden;rotatable=0;points=[[0,0.5],[1,0.5]];portConstraint=eastwest;whiteSpace=wrap;html=1;" parent="BldTMk8L5QHQUdBhH2Uk-1" vertex="1">
          <mxGeometry y="26" width="240" height="74" as="geometry" />
        </mxCell>
        <mxCell id="BldTMk8L5QHQUdBhH2Uk-3" value="" style="line;strokeWidth=1;fillColor=none;align=left;verticalAlign=middle;spacingTop=-1;spacingLeft=3;spacingRight=3;rotatable=0;labelPosition=right;points=[];portConstraint=eastwest;strokeColor=inherit;" parent="BldTMk8L5QHQUdBhH2Uk-1" vertex="1">
          <mxGeometry y="100" width="240" height="8" as="geometry" />
        </mxCell>
        <mxCell id="BldTMk8L5QHQUdBhH2Uk-4" value="&lt;div&gt;-MakeRandomInt()&lt;br&gt;&lt;/div&gt;&lt;div&gt;+~MakeRandomInt()&lt;/div&gt;&lt;div&gt;+getInstance(): MakeRandomInt*&lt;br&gt;&lt;/div&gt;&lt;div&gt;+getValue(min, max): int&lt;/div&gt;&lt;div&gt;&lt;br&gt;&lt;/div&gt;&lt;div&gt;&lt;br&gt;&lt;/div&gt;" style="text;strokeColor=none;fillColor=none;align=left;verticalAlign=top;spacingLeft=4;spacingRight=4;overflow=hidden;rotatable=0;points=[[0,0.5],[1,0.5]];portConstraint=eastwest;whiteSpace=wrap;html=1;" parent="BldTMk8L5QHQUdBhH2Uk-1" vertex="1">
          <mxGeometry y="108" width="240" height="102" as="geometry" />
        </mxCell>
        <mxCell id="BldTMk8L5QHQUdBhH2Uk-6" value="Spinner" style="swimlane;fontStyle=1;align=center;verticalAlign=top;childLayout=stackLayout;horizontal=1;startSize=26;horizontalStack=0;resizeParent=1;resizeParentMax=0;resizeLast=0;collapsible=1;marginBottom=0;whiteSpace=wrap;html=1;" parent="1" vertex="1">
          <mxGeometry x="550" y="500" width="160" height="100" as="geometry" />
        </mxCell>
        <mxCell id="BldTMk8L5QHQUdBhH2Uk-8" value="" style="line;strokeWidth=1;fillColor=none;align=left;verticalAlign=middle;spacingTop=-1;spacingLeft=3;spacingRight=3;rotatable=0;labelPosition=right;points=[];portConstraint=eastwest;strokeColor=inherit;" parent="BldTMk8L5QHQUdBhH2Uk-6" vertex="1">
          <mxGeometry y="26" width="160" height="8" as="geometry" />
        </mxCell>
        <mxCell id="BldTMk8L5QHQUdBhH2Uk-9" value="&lt;div&gt;+Spinner()&lt;/div&gt;&lt;div&gt;+Spinner(int, int)&lt;/div&gt;&lt;div&gt;#~Spinner()&lt;br&gt;&lt;/div&gt;" style="text;strokeColor=none;fillColor=none;align=left;verticalAlign=top;spacingLeft=4;spacingRight=4;overflow=hidden;rotatable=0;points=[[0,0.5],[1,0.5]];portConstraint=eastwest;whiteSpace=wrap;html=1;" parent="BldTMk8L5QHQUdBhH2Uk-6" vertex="1">
          <mxGeometry y="34" width="160" height="66" as="geometry" />
        </mxCell>
        <mxCell id="BldTMk8L5QHQUdBhH2Uk-16" value="Uses" style="endArrow=open;endSize=12;dashed=1;html=1;rounded=0;entryX=0.496;entryY=0.99;entryDx=0;entryDy=0;exitX=0.5;exitY=0;exitDx=0;exitDy=0;entryPerimeter=0;" parent="1" source="SPqAqPT20OvaiUhNbXfC-14" target="BldTMk8L5QHQUdBhH2Uk-4" edge="1">
          <mxGeometry width="160" relative="1" as="geometry">
            <mxPoint x="840" y="418" as="sourcePoint" />
            <mxPoint x="730" y="280" as="targetPoint" />
          </mxGeometry>
        </mxCell>
        <mxCell id="BldTMk8L5QHQUdBhH2Uk-22" value="Uses" style="endArrow=open;endSize=12;dashed=1;html=1;rounded=0;entryX=1;entryY=0.5;entryDx=0;entryDy=0;exitX=0;exitY=0.5;exitDx=0;exitDy=0;" parent="1" target="SPqAqPT20OvaiUhNbXfC-1" edge="1">
          <mxGeometry width="160" relative="1" as="geometry">
            <mxPoint x="280" y="408" as="sourcePoint" />
            <mxPoint x="170" y="270" as="targetPoint" />
          </mxGeometry>
        </mxCell>
      </root>
    </mxGraphModel>
  </diagram>
</mxfile>
